<mxfile host="app.diagrams.net" agent="Mozilla/5.0 (Macintosh; Intel Mac OS X 10_15_7) AppleWebKit/537.36 (KHTML, like Gecko) Chrome/131.0.0.0 Safari/537.36" version="26.0.3">
  <diagram name="Seite-1" id="podOPkqIoY8BDx9PpH1g">
    <mxGraphModel dx="1780" dy="744" grid="1" gridSize="10" guides="1" tooltips="1" connect="1" arrows="1" fold="1" page="1" pageScale="1" pageWidth="827" pageHeight="1169" math="0" shadow="0">
      <root>
        <mxCell id="0" />
        <mxCell id="1" parent="0" />
        <mxCell id="Bd3uD_yKP8gj1FbGmQv1-1" value="«cluster» Kubernetes Cluster" style="verticalAlign=top;align=center;shape=cube;size=10;direction=south;html=1;boundedLbl=1;spacingLeft=5;whiteSpace=wrap;" parent="1" vertex="1">
          <mxGeometry x="570" y="60" width="440" height="330" as="geometry" />
        </mxCell>
        <mxCell id="Bd3uD_yKP8gj1FbGmQv1-2" value="«device» artpc17" style="verticalAlign=top;align=center;shape=cube;size=10;direction=south;html=1;boundedLbl=1;spacingLeft=5;whiteSpace=wrap;" parent="1" vertex="1">
          <mxGeometry x="60" y="130" width="400" height="240" as="geometry" />
        </mxCell>
        <mxCell id="Bd3uD_yKP8gj1FbGmQv1-3" style="rounded=0;orthogonalLoop=1;jettySize=auto;html=1;exitX=0;exitY=0.5;exitDx=0;exitDy=0;dashed=1;endArrow=open;endFill=0;entryX=1;entryY=0.5;entryDx=0;entryDy=0;endSize=9;" parent="1" source="Bd3uD_yKP8gj1FbGmQv1-4" target="Bd3uD_yKP8gj1FbGmQv1-13" edge="1">
          <mxGeometry relative="1" as="geometry">
            <mxPoint x="190" y="320" as="targetPoint" />
          </mxGeometry>
        </mxCell>
        <mxCell id="Bd3uD_yKP8gj1FbGmQv1-4" value="«component»&lt;br&gt;&lt;b&gt;Terraform Modul&lt;br&gt;tf-module-argocd&lt;/b&gt;" style="html=1;dropTarget=0;whiteSpace=wrap;" parent="1" vertex="1">
          <mxGeometry x="280" y="270" width="160" height="80" as="geometry" />
        </mxCell>
        <mxCell id="Bd3uD_yKP8gj1FbGmQv1-5" value="" style="shape=module;jettyWidth=8;jettyHeight=4;" parent="Bd3uD_yKP8gj1FbGmQv1-4" vertex="1">
          <mxGeometry x="1" width="20" height="20" relative="1" as="geometry">
            <mxPoint x="-27" y="7" as="offset" />
          </mxGeometry>
        </mxCell>
        <mxCell id="Bd3uD_yKP8gj1FbGmQv1-6" value="" style="group" parent="1" vertex="1" connectable="0">
          <mxGeometry x="280" y="170" width="160" height="70" as="geometry" />
        </mxCell>
        <mxCell id="Bd3uD_yKP8gj1FbGmQv1-7" value="«artefact»&lt;br&gt;&lt;b&gt;Terraform&lt;/b&gt;" style="html=1;dropTarget=0;whiteSpace=wrap;" parent="Bd3uD_yKP8gj1FbGmQv1-6" vertex="1">
          <mxGeometry width="160" height="70" as="geometry" />
        </mxCell>
        <mxCell id="Bd3uD_yKP8gj1FbGmQv1-8" value="" style="shape=note2;boundedLbl=1;whiteSpace=wrap;html=1;size=6;verticalAlign=top;align=left;spacingLeft=5;" parent="Bd3uD_yKP8gj1FbGmQv1-6" vertex="1">
          <mxGeometry x="129.23076923076923" y="8.75" width="18.46153846153846" height="17.5" as="geometry" />
        </mxCell>
        <mxCell id="Bd3uD_yKP8gj1FbGmQv1-11" style="edgeStyle=orthogonalEdgeStyle;rounded=0;orthogonalLoop=1;jettySize=auto;html=1;exitX=0;exitY=0;exitDx=145;exitDy=0;exitPerimeter=0;endArrow=none;endFill=0;entryX=0.552;entryY=1;entryDx=0;entryDy=0;entryPerimeter=0;" parent="1" source="Bd3uD_yKP8gj1FbGmQv1-2" target="Bd3uD_yKP8gj1FbGmQv1-1" edge="1">
          <mxGeometry relative="1" as="geometry">
            <mxPoint x="564" y="275" as="targetPoint" />
            <Array as="points">
              <mxPoint x="460" y="242" />
            </Array>
          </mxGeometry>
        </mxCell>
        <mxCell id="Bd3uD_yKP8gj1FbGmQv1-12" value="&lt;span style=&quot;font-size: 12px; text-wrap: wrap; background-color: rgb(251, 251, 251);&quot;&gt;&lt;span style=&quot;text-wrap-style: initial; background-color: rgb(251, 251, 251);&quot;&gt;«&lt;/span&gt;&lt;span style=&quot;font-size: 11px; text-wrap-mode: nowrap; background-color: rgb(255, 255, 255);&quot;&gt;protocol&lt;/span&gt;&lt;span style=&quot;text-wrap-style: initial; background-color: rgb(251, 251, 251);&quot;&gt;»&lt;/span&gt;&lt;br style=&quot;font-size: 11px; text-wrap-mode: nowrap;&quot;&gt;&lt;span style=&quot;font-size: 11px; text-wrap-mode: nowrap; background-color: rgb(255, 255, 255);&quot;&gt;tcp: 6443&lt;/span&gt;&lt;/span&gt;" style="edgeLabel;html=1;align=center;verticalAlign=middle;resizable=0;points=[];" parent="Bd3uD_yKP8gj1FbGmQv1-11" vertex="1" connectable="0">
          <mxGeometry x="-0.2613" y="2" relative="1" as="geometry">
            <mxPoint x="30" y="-20" as="offset" />
          </mxGeometry>
        </mxCell>
        <mxCell id="Bd3uD_yKP8gj1FbGmQv1-13" value="«component»&lt;br&gt;&lt;b&gt;System Konfiguration durch Ansible&lt;/b&gt;" style="html=1;dropTarget=0;whiteSpace=wrap;" parent="1" vertex="1">
          <mxGeometry x="80" y="270" width="160" height="80" as="geometry" />
        </mxCell>
        <mxCell id="Bd3uD_yKP8gj1FbGmQv1-14" value="" style="shape=module;jettyWidth=8;jettyHeight=4;" parent="Bd3uD_yKP8gj1FbGmQv1-13" vertex="1">
          <mxGeometry x="1" width="20" height="20" relative="1" as="geometry">
            <mxPoint x="-27" y="7" as="offset" />
          </mxGeometry>
        </mxCell>
        <mxCell id="Bd3uD_yKP8gj1FbGmQv1-16" value="«Namespace»&lt;b&gt;&lt;br&gt;argocd&lt;/b&gt;" style="html=1;dropTarget=0;whiteSpace=wrap;" parent="1" vertex="1">
          <mxGeometry x="580" y="100" width="160" height="60" as="geometry" />
        </mxCell>
        <mxCell id="Bd3uD_yKP8gj1FbGmQv1-17" value="" style="shape=module;jettyWidth=8;jettyHeight=4;" parent="Bd3uD_yKP8gj1FbGmQv1-16" vertex="1">
          <mxGeometry x="1" width="20" height="20" relative="1" as="geometry">
            <mxPoint x="-27" y="7" as="offset" />
          </mxGeometry>
        </mxCell>
        <mxCell id="Bd3uD_yKP8gj1FbGmQv1-18" value="«NullResource»&lt;div&gt;&lt;b&gt;Cleanup Job&lt;/b&gt;&lt;/div&gt;" style="html=1;dropTarget=0;whiteSpace=wrap;" parent="1" vertex="1">
          <mxGeometry x="830" y="100" width="160" height="60" as="geometry" />
        </mxCell>
        <mxCell id="Bd3uD_yKP8gj1FbGmQv1-19" value="" style="shape=module;jettyWidth=8;jettyHeight=4;" parent="Bd3uD_yKP8gj1FbGmQv1-18" vertex="1">
          <mxGeometry x="1" width="20" height="20" relative="1" as="geometry">
            <mxPoint x="-27" y="7" as="offset" />
          </mxGeometry>
        </mxCell>
        <mxCell id="Bd3uD_yKP8gj1FbGmQv1-20" value="" style="group" parent="1" vertex="1" connectable="0">
          <mxGeometry x="580" y="200" width="160" height="60" as="geometry" />
        </mxCell>
        <mxCell id="Bd3uD_yKP8gj1FbGmQv1-21" value="«Helm Chart»&lt;br&gt;&lt;b&gt;argo-cd&lt;/b&gt;" style="html=1;dropTarget=0;whiteSpace=wrap;" parent="Bd3uD_yKP8gj1FbGmQv1-20" vertex="1">
          <mxGeometry width="160" height="60" as="geometry" />
        </mxCell>
        <mxCell id="Bd3uD_yKP8gj1FbGmQv1-22" value="" style="shape=note2;boundedLbl=1;whiteSpace=wrap;html=1;size=6;verticalAlign=top;align=left;spacingLeft=5;" parent="Bd3uD_yKP8gj1FbGmQv1-20" vertex="1">
          <mxGeometry x="129.23076923076923" y="7.5" width="18.46153846153846" height="15" as="geometry" />
        </mxCell>
        <mxCell id="Bd3uD_yKP8gj1FbGmQv1-23" value="«Kubernetes Manifest»&lt;b&gt;&lt;br&gt;argocd-seeds&lt;/b&gt;" style="html=1;dropTarget=0;whiteSpace=wrap;" parent="1" vertex="1">
          <mxGeometry x="830" y="200" width="160" height="60" as="geometry" />
        </mxCell>
        <mxCell id="Bd3uD_yKP8gj1FbGmQv1-24" value="" style="shape=module;jettyWidth=8;jettyHeight=4;" parent="Bd3uD_yKP8gj1FbGmQv1-23" vertex="1">
          <mxGeometry x="1" width="20" height="20" relative="1" as="geometry">
            <mxPoint x="-27" y="7" as="offset" />
          </mxGeometry>
        </mxCell>
        <mxCell id="Bd3uD_yKP8gj1FbGmQv1-27" value="" style="group" parent="1" vertex="1" connectable="0">
          <mxGeometry x="580" y="310" width="160" height="60" as="geometry" />
        </mxCell>
        <mxCell id="Bd3uD_yKP8gj1FbGmQv1-28" value="«YAML»&lt;br&gt;&lt;b&gt;values&lt;/b&gt;" style="html=1;dropTarget=0;whiteSpace=wrap;" parent="Bd3uD_yKP8gj1FbGmQv1-27" vertex="1">
          <mxGeometry width="160" height="60" as="geometry" />
        </mxCell>
        <mxCell id="Bd3uD_yKP8gj1FbGmQv1-29" value="" style="shape=note2;boundedLbl=1;whiteSpace=wrap;html=1;size=6;verticalAlign=top;align=left;spacingLeft=5;" parent="Bd3uD_yKP8gj1FbGmQv1-27" vertex="1">
          <mxGeometry x="129.23076923076923" y="7.5" width="18.46153846153846" height="15" as="geometry" />
        </mxCell>
        <mxCell id="Bd3uD_yKP8gj1FbGmQv1-31" style="rounded=0;orthogonalLoop=1;jettySize=auto;html=1;exitX=0;exitY=0.5;exitDx=0;exitDy=0;dashed=1;endArrow=open;endFill=0;strokeWidth=1;endSize=9;startSize=6;entryX=1;entryY=0.5;entryDx=0;entryDy=0;" parent="1" source="Bd3uD_yKP8gj1FbGmQv1-23" target="Bd3uD_yKP8gj1FbGmQv1-21" edge="1">
          <mxGeometry relative="1" as="geometry">
            <mxPoint x="630" y="390" as="sourcePoint" />
            <mxPoint x="630" y="270" as="targetPoint" />
          </mxGeometry>
        </mxCell>
        <mxCell id="Bd3uD_yKP8gj1FbGmQv1-32" style="rounded=0;orthogonalLoop=1;jettySize=auto;html=1;dashed=1;endArrow=open;endFill=0;strokeWidth=1;endSize=9;startSize=6;entryX=1;entryY=0.5;entryDx=0;entryDy=0;exitX=0;exitY=0.5;exitDx=0;exitDy=0;" parent="1" source="Bd3uD_yKP8gj1FbGmQv1-18" target="Bd3uD_yKP8gj1FbGmQv1-16" edge="1">
          <mxGeometry relative="1" as="geometry">
            <mxPoint x="740" y="202" as="sourcePoint" />
            <mxPoint x="750" y="240" as="targetPoint" />
          </mxGeometry>
        </mxCell>
        <mxCell id="Bd3uD_yKP8gj1FbGmQv1-33" style="rounded=0;orthogonalLoop=1;jettySize=auto;html=1;dashed=1;endArrow=open;endFill=0;strokeWidth=1;endSize=9;startSize=6;entryX=0.5;entryY=1;entryDx=0;entryDy=0;exitX=0.5;exitY=0;exitDx=0;exitDy=0;" parent="1" source="Bd3uD_yKP8gj1FbGmQv1-21" target="Bd3uD_yKP8gj1FbGmQv1-16" edge="1">
          <mxGeometry relative="1" as="geometry">
            <mxPoint x="750" y="212" as="sourcePoint" />
            <mxPoint x="840" y="150" as="targetPoint" />
          </mxGeometry>
        </mxCell>
        <mxCell id="Bd3uD_yKP8gj1FbGmQv1-34" style="rounded=0;orthogonalLoop=1;jettySize=auto;html=1;exitX=0.5;exitY=1;exitDx=0;exitDy=0;entryX=0.5;entryY=0;entryDx=0;entryDy=0;dashed=1;endArrow=open;endFill=0;strokeWidth=1;endSize=9;startSize=6;" parent="1" source="Bd3uD_yKP8gj1FbGmQv1-23" target="Bd3uD_yKP8gj1FbGmQv1-25" edge="1">
          <mxGeometry relative="1" as="geometry">
            <mxPoint x="630" y="390" as="sourcePoint" />
            <mxPoint x="630" y="270" as="targetPoint" />
          </mxGeometry>
        </mxCell>
        <mxCell id="Bd3uD_yKP8gj1FbGmQv1-36" value="Verteilungsdiagramm: Terraform ArgoCD" style="shape=umlFrame;whiteSpace=wrap;html=1;pointerEvents=0;recursiveResize=0;container=1;collapsible=0;width=270;height=30;" parent="1" vertex="1">
          <mxGeometry x="40" y="40" width="990" height="370" as="geometry" />
        </mxCell>
        <mxCell id="Bd3uD_yKP8gj1FbGmQv1-25" value="«YAML»&lt;b&gt;&lt;br&gt;seeds-repo&lt;/b&gt;" style="html=1;dropTarget=0;whiteSpace=wrap;" parent="Bd3uD_yKP8gj1FbGmQv1-36" vertex="1">
          <mxGeometry x="790" y="270" width="160" height="60" as="geometry" />
        </mxCell>
        <mxCell id="Bd3uD_yKP8gj1FbGmQv1-26" value="" style="shape=module;jettyWidth=8;jettyHeight=4;" parent="Bd3uD_yKP8gj1FbGmQv1-25" vertex="1">
          <mxGeometry x="1" width="20" height="20" relative="1" as="geometry">
            <mxPoint x="-27" y="7" as="offset" />
          </mxGeometry>
        </mxCell>
        <mxCell id="Bd3uD_yKP8gj1FbGmQv1-30" style="rounded=0;orthogonalLoop=1;jettySize=auto;html=1;exitX=0.5;exitY=1;exitDx=0;exitDy=0;entryX=0.5;entryY=0;entryDx=0;entryDy=0;dashed=1;endArrow=open;endFill=0;strokeWidth=1;endSize=9;startSize=6;" parent="1" source="Bd3uD_yKP8gj1FbGmQv1-21" target="Bd3uD_yKP8gj1FbGmQv1-28" edge="1">
          <mxGeometry relative="1" as="geometry">
            <mxPoint x="670" y="320" as="sourcePoint" />
            <mxPoint x="620" y="290" as="targetPoint" />
          </mxGeometry>
        </mxCell>
      </root>
    </mxGraphModel>
  </diagram>
</mxfile>
